#N canvas 129 122 872 454 10;
#X obj 186 100 hsl 128 15 1 127 0 0 empty empty empty -2 -8 0 10 -24198
-1 -1 1500 0;
#X floatatom 217 203 5 0 0 0 - - -;
#X obj 378 55 notein;
#X floatatom 378 85 5 0 0 0 - - -;
#X text 377 37 Rosegarden metronome;
#X obj 200 155 math.floor;
#X connect 0 0 5 0;
#X connect 2 1 3 0;
#X connect 5 0 1 0;
