#N canvas 45 110 1017 699 10;
#X obj 71 36 notein;
#X obj 70 115 stripnote;
#X obj 82 181 mtof;
#X obj 76 219 osc~ 0;
#X obj 79 265 *~ 0.1;
#X obj 107 324 dac~;
#X connect 0 0 1 0;
#X connect 0 1 1 1;
#X connect 1 0 2 0;
#X connect 2 0 3 0;
#X connect 3 0 4 0;
#X connect 4 0 5 0;
